<?xml version="1.0" standalone="no"?>
<!DOCTYPE svg PUBLIC "-//W3C//DTD SVG 20010904//EN"
 "http://www.w3.org/TR/2001/REC-SVG-20010904/DTD/svg10.dtd">
<svg version="1.0" xmlns="http://www.w3.org/2000/svg"
 width="100.000000pt" height="100.000000pt" viewBox="0 0 100.000000 100.000000"
 preserveAspectRatio="xMidYMid meet">
<metadata>
Created by potrace 1.16, written by Peter Selinger 2001-2019
</metadata>
<g transform="translate(0.000000,100.000000) scale(0.100000,-0.100000)"
fill="#000000" stroke="none">
<path d="M205 709 c-273 -227 -273 -191 0 -418 216 -180 241 -194 278 -153 13
15 17 46 19 169 l3 150 203 -168 c213 -178 238 -192 275 -151 15 17 17 57 17
364 0 321 -1 346 -18 361 -40 37 -63 24 -274 -152 l-203 -168 -3 150 c-2 123
-6 154 -19 169 -37 41 -62 27 -278 -153z"/>
</g>
</svg>
