 <svg version="1.0" xmlns="http://www.w3.org/2000/svg" width="700.000000pt" height="700.000000pt" viewBox="0 0 700.000000 700.000000" preserveAspectRatio="xMidYMid meet">
<metadata>
Created by potrace 1.12, written by Peter Selinger 2001-2015
</metadata>
<g transform="translate(0.000000,700.000000) scale(0.100000,-0.100000)" fill="#000000" stroke="none">
<path d="M3225 6980 c-25 -24 -84 -36 -257 -50 -96 -8 -150 -18 -193 -35 -33
-13 -93 -31 -133 -39 -40 -8 -88 -24 -105 -35 -18 -10 -58 -26 -90 -34 -33 -9
-75 -27 -95 -40 -21 -14 -48 -28 -62 -32 -14 -4 -41 -17 -60 -29 -34 -21 -73
-42 -191 -103 -34 -18 -70 -40 -80 -49 -10 -9 -31 -23 -47 -32 -45 -26 -124
-78 -152 -101 -224 -184 -448 -424 -588 -628 -18 -27 -43 -64 -57 -83 -13 -19
-36 -57 -51 -85 -14 -27 -35 -59 -45 -70 -10 -11 -25 -40 -33 -63 -9 -24 -25
-55 -36 -69 -11 -14 -27 -50 -36 -80 -8 -29 -26 -72 -39 -96 -13 -23 -28 -66
-34 -96 -6 -30 -21 -69 -32 -87 -11 -18 -27 -70 -36 -116 -8 -45 -24 -105 -35
-133 -29 -72 -70 -449 -71 -650 -1 -101 5 -210 16 -295 10 -74 22 -173 28
-219 6 -46 17 -98 26 -114 8 -16 23 -71 34 -122 10 -51 27 -108 38 -126 11
-19 27 -63 36 -99 9 -35 25 -76 34 -90 10 -14 24 -43 31 -65 7 -22 25 -62 40
-90 15 -27 31 -61 35 -75 4 -14 18 -40 32 -57 13 -18 31 -52 39 -75 8 -23 23
-52 33 -63 10 -11 28 -38 40 -60 87 -162 324 -412 626 -661 39 -32 100 -77
148 -109 21 -14 47 -35 57 -45 20 -20 42 -20 1539 -20 l1519 0 40 32 c23 18
66 51 97 73 177 126 531 459 587 553 11 17 24 32 28 32 8 0 53 65 100 145 14
24 33 52 43 62 9 11 24 40 33 65 8 25 24 54 34 63 11 10 27 40 36 69 9 28 25
62 35 75 11 13 26 46 34 73 8 27 23 61 34 76 11 15 27 57 36 92 9 36 25 80 36
99 11 18 28 75 38 126 11 51 26 106 35 122 8 17 20 73 26 124 6 52 17 146 25
209 8 63 17 167 20 230 6 112 4 144 -39 535 -8 74 -23 152 -34 180 -11 28 -27
87 -35 132 -9 44 -24 98 -35 120 -11 22 -28 68 -37 103 -9 35 -25 76 -35 90
-9 14 -25 50 -34 81 -8 31 -25 68 -36 82 -11 14 -27 45 -36 69 -8 23 -23 52
-34 63 -10 11 -27 40 -38 65 -11 25 -29 54 -41 64 -11 11 -21 25 -21 32 0 7
-18 34 -40 59 -22 25 -40 50 -40 55 0 11 -62 90 -166 209 -79 91 -334 341
-364 356 -16 8 -30 20 -30 25 0 5 -19 19 -42 31 -24 12 -58 35 -76 50 -18 16
-38 29 -44 29 -5 0 -26 14 -45 30 -18 17 -40 30 -47 30 -8 0 -36 15 -62 33
-27 18 -70 41 -96 51 -25 9 -52 23 -58 31 -6 8 -28 19 -48 26 -20 6 -57 24
-82 39 -25 15 -61 31 -80 35 -19 4 -57 18 -83 32 -27 13 -85 33 -130 43 -45
10 -107 28 -137 39 -32 11 -106 24 -180 31 -161 14 -227 27 -251 51 -18 18
-36 19 -277 19 -243 0 -259 -1 -277 -20z m930 -2609 c52 -43 125 -127 125
-144 0 -6 12 -29 28 -51 25 -36 27 -48 30 -155 l4 -116 -45 -85 c-52 -101
-108 -162 -197 -216 l-65 -39 -135 0 -135 0 -85 42 c-88 44 -154 102 -184 160
-35 69 -15 83 116 83 119 1 163 11 229 55 61 41 139 114 139 130 0 5 16 41 35
79 33 66 35 75 35 172 0 88 3 105 18 113 27 16 37 13 87 -28z m1096 -222 c69
-45 125 -125 160 -229 36 -110 36 -154 0 -261 -54 -162 -184 -286 -322 -308
-176 -29 -298 3 -421 108 -40 35 -108 129 -108 150 0 21 53 33 115 26 33 -3
94 -1 135 5 73 10 84 15 181 85 34 25 98 109 109 144 51 160 53 171 40 231 -7
32 -9 63 -6 69 13 21 68 11 117 -20z m-905 -852 c55 -32 124 -107 165 -182
l44 -80 0 -127 c0 -113 -2 -129 -21 -155 -12 -16 -33 -51 -47 -78 -36 -71
-119 -139 -219 -179 -121 -49 -169 -53 -259 -23 -41 14 -93 30 -115 36 -32 9
-58 29 -113 88 -65 69 -72 81 -69 112 l3 36 100 5 c61 4 112 12 130 21 17 9
51 22 76 28 63 17 148 89 179 150 14 27 34 65 44 83 15 26 19 56 21 141 3 133
20 159 81 124z"></path>
<path d="M1996 1294 c-24 -23 -20 -57 15 -137 34 -78 94 -155 143 -187 17 -10
40 -26 51 -34 28 -20 197 -46 304 -46 121 0 316 -46 367 -86 79 -64 123 -119
160 -203 l38 -86 6 -208 5 -208 36 -32 c20 -18 39 -40 43 -50 5 -16 30 -17
336 -17 236 0 330 3 330 11 0 6 19 29 43 50 l42 39 6 212 6 213 41 85 c39 82
75 126 155 192 52 43 242 87 377 88 130 1 277 29 320 60 41 31 140 132 140
144 0 5 13 35 30 68 36 71 39 111 8 132 -20 14 -179 16 -1505 16 -1334 0
-1483 -2 -1497 -16z"></path>
</g>
</svg>